<?xml version="1.0" encoding="UTF-8"?>
<svg width="274px" height="51px" viewBox="0 0 274 51" version="1.1" xmlns="http://www.w3.org/2000/svg" xmlns:xlink="http://www.w3.org/1999/xlink">
    <!-- Generator: Sketch 48.2 (47327) - http://www.bohemiancoding.com/sketch -->
    <title>Logo/AJS-white</title>
    <desc>Created with Sketch.</desc>
    <defs>
        <linearGradient x1="0.163483146%" y1="49.8112094%" x2="100.251124%" y2="49.8112094%" id="linearGradient-1">
            <stop stop-color="#FFFFFF" offset="0%"></stop>
            <stop stop-color="#FFFFFF" offset="51.36%"></stop>
            <stop stop-color="#FFFFFF" stop-opacity="0" offset="100%"></stop>
        </linearGradient>
        <linearGradient x1="0%" y1="50.0061926%" x2="99.9494932%" y2="50.0061926%" id="linearGradient-2">
            <stop stop-color="#FFFFFF" stop-opacity="0.4" offset="0%"></stop>
            <stop stop-color="#FFFFFF" offset="39.11%"></stop>
            <stop stop-color="#FFFFFF" offset="100%"></stop>
        </linearGradient>
    </defs>
    <g id="Symbols" stroke="none" stroke-width="1" fill="none" fill-rule="evenodd">
        <g id="Logo/AJS-white" fill-rule="nonzero">
            <g id="Logo/AJS/white">
                <g id="Group-2" transform="translate(24.000000, 19.000000)" fill="#FFFFFF">
                    <path d="M135.3,26.6 C135.3,28.3 134.7,29.4 133.3,30.4 L132.5,31 C132.4,31.1 132.2,31.1 132.2,31 L131.6,30 C131.6,29.9 131.6,29.7 131.7,29.7 L132.5,29.1 C133.3,28.5 133.7,27.8 133.7,26.7 L133.7,13.4 L132.4,13.4 C132.2,13.4 132.1,13.3 132.1,13.1 L132.1,12 C132.1,11.8 132.2,11.7 132.4,11.7 L135.2,11.7 C135.4,11.7 135.5,11.8 135.5,12 L135.5,26.6 L135.3,26.6 Z M135.3,6.6 C135.3,7.4 134.9,7.8 134.1,7.8 C133.4,7.8 132.9,7.4 132.9,6.6 C132.9,5.8 133.3,5.4 134.1,5.4 C134.9,5.4 135.3,5.9 135.3,6.6 Z" id="Shape"></path>
                    <path d="M150.8,18.4 C150.8,22.6 148.5,25.3 144.8,25.3 C141.1,25.3 138.8,22.7 138.8,18.4 C138.8,14.2 141.1,11.6 144.8,11.6 C148.5,11.5 150.8,14.2 150.8,18.4 Z M140.6,18.4 C140.6,21.7 142.1,23.6 144.8,23.6 C147.4,23.6 149,21.7 149,18.4 C149,15.2 147.4,13.2 144.8,13.2 C142.2,13.2 140.6,15.2 140.6,18.4 Z" id="Shape"></path>
                    <path d="M156.2,10.9 C156.2,12 156.2,12.8 156,13.7 C155.9,14 156.1,14.1 156.3,13.8 C157.2,12.4 158.6,11.6 160.5,11.6 C164,11.6 166.1,14.2 166.1,18.4 C166.1,22.7 163.9,25.3 160.1,25.3 C158.8,25.3 157.6,25 156.6,24.6 L154.6,23.7 C154.5,23.7 154.4,23.6 154.4,23.4 L154.4,5.8 C154.4,5.6 154.5,5.5 154.7,5.5 L156,5.5 C156.2,5.5 156.3,5.6 156.3,5.8 L156.2,10.9 Z M157.3,23 C158,23.3 159,23.6 160.1,23.6 C162.7,23.6 164.3,21.7 164.3,18.4 C164.3,15.2 162.8,13.2 160.3,13.2 C157.5,13.2 156.2,15.6 156.2,18.7 L156.2,22.4 L157.3,23 Z" id="Shape"></path>
                    <path d="M178,18.5 C176,18 175,16.9 175,15.1 C175,12.9 176.7,11.5 179.7,11.5 C180.9,11.5 182.1,11.7 182.9,11.9 L184,12.2 C184.2,12.2 184.2,12.4 184.2,12.5 L183.9,13.6 C183.9,13.8 183.7,13.8 183.6,13.8 L182.6,13.5 C181.9,13.3 180.8,13.2 179.8,13.2 C177.9,13.2 176.9,14 176.9,15.1 C176.9,16 177.4,16.6 178.7,17 L181.9,17.9 C184.1,18.5 185,19.6 185,21.4 C185,23.8 183.1,25.2 180,25.2 C178.4,25.2 177,25 175.9,24.6 L175.2,24.3 C175,24.3 175,24.1 175,24 L175.4,22.9 C175.4,22.8 175.6,22.7 175.7,22.8 L176.4,23.1 C177.3,23.4 178.6,23.7 180.1,23.7 C182.1,23.7 183.3,22.9 183.3,21.5 C183.3,20.5 182.7,19.9 181.4,19.5 L178,18.5 Z" id="Shape"></path>
                    <path d="M196.6,24.8 C195.7,25.1 194.7,25.2 193.6,25.2 C189.8,25.2 187.6,22.6 187.6,18.3 C187.6,14.1 189.9,11.5 193.6,11.5 C196.7,11.5 198.6,13 198.6,15.5 C198.6,17.4 197.4,18.6 194.9,18.9 L189.6,19.8 C189.9,22.1 191.5,23.5 193.7,23.5 C194.6,23.5 195.5,23.4 196.2,23.2 L197,22.9 C197.2,22.9 197.3,22.9 197.3,23.1 L197.6,24.2 C197.6,24.4 197.6,24.5 197.4,24.5 L196.6,24.8 Z M194.6,17.6 C196.1,17.3 196.8,16.7 196.8,15.7 C196.8,14.2 195.6,13.2 193.6,13.2 C191.1,13.2 189.5,14.9 189.4,18.4 L194.6,17.6 Z" id="Shape"></path>
                    <path d="M203.3,12 C204.1,11.7 205.1,11.6 206.2,11.6 C209.6,11.6 211.6,13.6 211.6,16.9 L211.6,24.8 C211.6,25 211.5,25.1 211.3,25.1 L210.4,25.1 C210.2,25.1 210.1,25 210.1,24.8 L210,23.6 C209.9,23.3 209.7,23.3 209.4,23.6 C208.5,24.8 207.1,25.4 205.1,25.4 C202.3,25.4 200.7,23.9 200.7,21.4 C200.7,19 202.4,17.4 205.5,17.4 L209.6,17.4 L209.6,17.1 C209.6,14.8 208.3,13.4 205.9,13.4 C205,13.4 204.1,13.5 203.4,13.7 L202.5,14 C202.3,14 202.2,14 202.2,13.8 L201.9,12.7 C201.9,12.5 201.9,12.4 202.1,12.4 L203.3,12 Z M205.8,18.8 C203.7,18.8 202.7,19.7 202.7,21.2 C202.7,22.7 203.7,23.7 205.5,23.7 C208.3,23.7 209.9,22.1 209.9,19.2 L209.9,18.9 L205.8,18.8 Z" id="Shape"></path>
                    <path d="M222.4,13 C222.4,13.2 222.3,13.3 222.1,13.3 C219.2,13.4 217.5,15.9 217.5,20.6 L217.5,24.9 C217.5,25.1 217.4,25.2 217.2,25.2 L216,25.2 C215.8,25.2 215.7,25.1 215.7,24.9 L215.7,12.1 C215.7,11.9 215.8,11.8 216,11.8 L216.9,11.8 C217.1,11.8 217.2,11.9 217.2,12.1 L217.4,14.2 C217.4,14.4 217.6,14.5 217.7,14.2 C218.7,12.6 220.1,11.7 222.2,11.6 C222.4,11.6 222.5,11.7 222.5,11.9 L222.5,13 L222.4,13 Z" id="Shape"></path>
                    <path d="M233.8,24.8 C232.9,25.1 232,25.2 231.1,25.2 C227.1,25.2 224.9,22.6 224.9,18.3 C224.9,14.1 227.1,11.5 231.1,11.5 C232,11.5 232.7,11.6 233.6,11.9 L234.5,12.2 C234.7,12.2 234.7,12.3 234.7,12.5 L234.4,13.6 C234.4,13.7 234.2,13.8 234.1,13.8 L233.3,13.6 C232.5,13.3 231.8,13.3 231.2,13.3 C228.2,13.3 226.7,15.3 226.7,18.5 C226.7,21.8 228.2,23.7 231.1,23.7 C231.8,23.7 232.6,23.6 233.4,23.3 L234.2,23.1 C234.4,23.1 234.5,23.1 234.5,23.3 L234.8,24.4 C234.8,24.6 234.8,24.7 234.6,24.7 L233.8,24.8 Z" id="Shape"></path>
                    <path d="M240.2,10.9 C240.2,12 240.1,12.8 239.9,13.7 C239.9,14 240,14 240.2,13.8 C241.1,12.4 242.5,11.6 244.5,11.6 C247.5,11.6 249.4,13.6 249.4,16.9 L249.4,24.8 C249.4,25 249.3,25.1 249.1,25.1 L248,25.1 C247.8,25.1 247.7,25 247.7,24.8 L247.7,17 C247.7,14.6 246.5,13.2 244.5,13.2 C241.4,13.2 240.2,15.8 240.2,18.7 L240.2,24.7 C240.2,24.9 240.1,25 239.9,25 L238.6,25 C238.4,25 238.3,24.9 238.3,24.7 L238.3,5.8 C238.3,5.6 238.4,5.5 238.6,5.5 L239.9,5.5 C240.1,5.5 240.2,5.6 240.2,5.8 L240.2,10.9 Z" id="Shape"></path>
                    <g id="Group">
                        <path d="M3.6,9 C4.8,8.7 6,8.5 7.3,8.5 C12.3,8.5 15.3,10.9 15.3,15 L15.3,24.8 C15.3,25.1 15.1,25.2 14.9,25.2 L12.4,25.2 C12.1,25.2 12,25.1 11.9,24.9 L11.6,24.3 C11.4,23.9 11.1,23.8 10.5,24.3 C9.6,25.1 8.3,25.5 6.9,25.5 C2.9,25.5 0.6,23.5 0.6,20.2 C0.6,17.1 3.1,15.3 7.2,15.3 L10.3,15.3 L10.3,15.2 C10.2,13.8 8.9,12.9 7,12.9 C6.4,12.9 5.6,13 4.8,13.2 L3.6,13.5 C3.3,13.6 3.2,13.5 3.1,13.2 L2.1,9.8 C2,9.5 2.1,9.3 2.4,9.3 L3.6,9 Z M7.1,18.5 C6.2,18.5 5.4,19 5.4,19.7 C5.4,20.6 6.1,21.2 7.3,21.2 C9,21.2 10,20.4 10.2,18.5 L7.1,18.5 Z" id="Shape"></path>
                        <path d="M31.9,15.3 C30.7,18.6 29.5,22.1 28.8,24.7 C28.7,24.9 28.6,25 28.3,25 L23,25 C22.8,25 22.6,24.9 22.5,24.7 C21.8,22.2 20.6,18.7 19.4,15.3 L17.1,9.2 C17,8.9 17.1,8.7 17.4,8.7 L22,8.7 C22.2,8.7 22.4,8.8 22.5,9 L23.5,11.8 C24.4,14.2 25,16.8 25.4,18.8 C25.5,19.2 25.9,19.2 26,18.8 C26.3,16.8 26.9,14.2 27.8,11.8 L28.8,9 C28.9,8.8 29.1,8.7 29.3,8.7 L33.9,8.7 C34.2,8.7 34.4,8.9 34.2,9.2 L31.9,15.3 Z" id="Shape"></path>
                        <path d="M43.5,24.7 C43.5,25 43.3,25.1 43.1,25.1 L38.7,25.1 C38.4,25.1 38.3,24.9 38.3,24.7 L38.3,13.4 L36.6,13.4 C36.3,13.4 36.2,13.2 36.2,13 L36.2,9.3 C36.2,9 36.4,8.9 36.6,8.9 L43,8.9 C43.3,8.9 43.4,9.1 43.4,9.3 L43.4,24.7 L43.5,24.7 Z" id="Shape"></path>
                        <path d="M49.4,9 C50.6,8.7 51.8,8.5 53.1,8.5 C58.1,8.5 61.1,10.9 61.1,15 L61.1,24.8 C61.1,25.1 60.9,25.2 60.7,25.2 L58.2,25.2 C57.9,25.2 57.8,25.1 57.7,24.9 L57.4,24.3 C57.2,23.9 56.9,23.8 56.3,24.3 C55.4,25.1 54.1,25.5 52.7,25.5 C48.7,25.5 46.4,23.5 46.4,20.2 C46.4,17.1 48.9,15.3 53,15.3 L56.1,15.3 L56.1,15.2 C56,13.8 54.7,12.9 52.8,12.9 C52.2,12.9 51.4,13 50.6,13.2 L49.4,13.5 C49.1,13.6 49,13.5 48.9,13.2 L47.9,9.8 C47.8,9.5 47.9,9.3 48.2,9.3 L49.4,9 Z M52.9,18.5 C52,18.5 51.2,19 51.2,19.7 C51.2,20.6 51.9,21.2 53.1,21.2 C54.8,21.2 55.8,20.4 56,18.5 L52.9,18.5 Z" id="Shape"></path>
                        <path d="M74.9,8.8 C75.2,8.8 75.3,9 75.3,9.2 L75.3,13 C75.3,13.3 75.1,13.4 74.9,13.4 L71.2,13.4 L71.2,19.4 C71.2,20.3 71.5,20.8 72.1,20.8 C72.4,20.8 72.7,20.8 72.9,20.7 C73.2,20.6 73.4,20.6 73.5,20.9 L75,24.1 C75.1,24.3 75.1,24.6 74.9,24.7 C74.1,25.2 73,25.5 72.1,25.5 C68.3,25.5 66,23.3 66,19.5 L66,13.5 L64.3,13.5 C64,13.5 63.9,13.3 63.9,13.1 L63.9,9.4 C63.9,9.1 64.1,9 64.3,9 L66,9 L66,5.3 C66,5.1 66.1,4.9 66.3,4.8 L70.7,3.3 C71,3.2 71.2,3.3 71.2,3.6 L71.2,8.8 L74.9,8.8 Z" id="Shape"></path>
                        <path d="M84.9,24.7 C84.9,25 84.7,25.1 84.5,25.1 L80.1,25.1 C79.8,25.1 79.7,24.9 79.7,24.7 L79.7,13.4 L78,13.4 C77.7,13.4 77.6,13.2 77.6,13 L77.6,9.3 C77.6,9 77.8,8.9 78,8.9 L84.5,8.9 C84.8,8.9 84.9,9.1 84.9,9.3 L84.9,24.7 Z M84.8,3.6 C84.8,5.5 83.7,6.7 81.8,6.7 C79.9,6.7 78.8,5.5 78.8,3.6 C78.8,1.7 79.9,0.6 81.8,0.6 C83.7,0.6 84.8,1.6 84.8,3.6 Z" id="Shape"></path>
                        <path d="M104.1,16.9 C104.1,22.1 101,25.4 96,25.4 C91,25.4 87.9,22.1 87.9,16.9 C87.9,11.7 91,8.4 96,8.4 C101,8.4 104.1,11.7 104.1,16.9 Z M93.1,16.9 C93.1,19.3 94.2,20.8 96.1,20.8 C97.9,20.8 99,19.3 99,16.9 C99,14.5 97.9,13.1 96.1,13.1 C94.2,13.1 93.1,14.5 93.1,16.9 Z" id="Shape"></path>
                        <path d="M110.9,9.8 C111.2,10.3 111.4,10.3 111.9,9.8 C113.2,8.7 114.7,8.4 115.8,8.4 C119.7,8.4 122.1,10.6 122.1,14.6 L122.1,24.7 C122.1,25 121.9,25.1 121.7,25.1 L117.2,25.1 C116.9,25.1 116.8,24.9 116.8,24.7 L116.8,15.2 C116.8,13.8 116.1,13.1 114.9,13.1 C113.3,13.1 112.4,14.3 112.4,16.5 L112.4,24.7 C112.4,25 112.2,25.1 112,25.1 L107.6,25.1 C107.3,25.1 107.2,24.9 107.2,24.7 L107.2,9.2 C107.2,8.9 107.4,8.8 107.6,8.8 L110,8.8 C110.2,8.8 110.4,8.9 110.5,9.1 L110.9,9.8 Z" id="Shape"></path>
                    </g>
                </g>
                <g id="Group">
                    <path d="M17.7,45.5 L18.1,45.5 C8.5,45.5 0.6,37.9 0.6,30.7 L0.6,11.7 C0.6,17 8,26.1 18.4,26.1 L18.4,38.3 L18.3,45.6" id="SVGID_9_" fill="url(#linearGradient-1)"></path>
                    <path d="M59.7,18.5 C53.9,12.9 45.1,5.6 33,2.1 C19.7,-1.7 1.4,1.1 0.5,11.6 C0.5,18.6 0.6,30.9 0.6,30.9 C0.6,22.1 13.3,15.1 31.7,14.2 C41.2,13.7 53.6,15.7 59.7,18.5" id="SVGID_14_" fill="url(#linearGradient-2)"></path>
                    <polygon id="Shape" fill="#FFFFFF" points="57.7 22.4 57.7 22.5 70.6 24 61.8 14.5 62.2 19.6"></polygon>
                </g>
            </g>
        </g>
    </g>
</svg>