<?xml version="1.0" encoding="utf-8"?>
<!-- Generator: Adobe Illustrator 16.0.0, SVG Export Plug-In . SVG Version: 6.00 Build 0)  -->
<!DOCTYPE svg PUBLIC "-//W3C//DTD SVG 1.1//EN" "http://www.w3.org/Graphics/SVG/1.1/DTD/svg11.dtd">
<svg version="1.1" id="Layer_1" xmlns="http://www.w3.org/2000/svg" xmlns:xlink="http://www.w3.org/1999/xlink" x="0px" y="0px"
	 width="271.734px" height="49.317px" viewBox="311.247 -68.042 271.734 49.317"
	 enable-background="new 311.247 -68.042 271.734 49.317" xml:space="preserve">
<g>
	<path fill="#197EC1" d="M469.315-23.193c0,1.668-0.627,2.843-2.021,3.799l-0.819,0.602c-0.138,0.109-0.274,0.083-0.355-0.055
		l-0.631-1.01c-0.053-0.137-0.053-0.248,0.082-0.329l0.794-0.602c0.821-0.574,1.176-1.312,1.176-2.406V-36.26h-1.258
		c-0.163,0-0.245-0.082-0.245-0.246v-1.122c0-0.162,0.082-0.245,0.245-0.245h2.788c0.165,0,0.245,0.083,0.245,0.245V-23.193z
		 M469.315-43.038c0,0.765-0.409,1.204-1.174,1.204c-0.738,0-1.176-0.439-1.176-1.204c0-0.767,0.438-1.203,1.176-1.203
		C468.906-44.241,469.315-43.805,469.315-43.038z"/>
	<path fill="#197EC1" d="M484.737-31.339c0,4.209-2.268,6.833-5.959,6.833c-3.69,0-5.961-2.623-5.961-6.833
		c0-4.182,2.271-6.807,5.961-6.807C482.469-38.145,484.737-35.521,484.737-31.339z M474.596-31.339c0,3.252,1.558,5.193,4.182,5.193
		c2.625,0,4.211-1.941,4.211-5.193c0-3.226-1.586-5.167-4.211-5.167C476.154-36.506,474.596-34.565,474.596-31.339z"/>
	<path fill="#197EC1" d="M490.05-38.828c0,1.119-0.055,1.912-0.219,2.76c-0.083,0.301,0.136,0.409,0.328,0.136
		c0.9-1.366,2.295-2.213,4.153-2.213c3.501,0,5.578,2.597,5.578,6.807c0,4.237-2.243,6.833-5.96,6.833
		c-1.339,0-2.516-0.272-3.498-0.709l-1.97-0.848c-0.138-0.053-0.189-0.137-0.189-0.273v-17.521c0-0.165,0.081-0.245,0.244-0.245
		h1.285c0.164,0,0.247,0.08,0.247,0.245V-38.828z M491.141-26.719c0.685,0.302,1.668,0.574,2.789,0.574
		c2.625,0,4.183-1.941,4.183-5.193c0-3.226-1.476-5.167-3.964-5.167c-2.761,0-4.128,2.378-4.128,5.468v3.746L491.141-26.719z"/>
	<path fill="#197EC1" d="M511.82-31.203c-2.023-0.519-2.953-1.583-2.953-3.388c0-2.216,1.721-3.554,4.676-3.554
		c1.201,0,2.377,0.164,3.198,0.41l1.065,0.327c0.163,0.056,0.219,0.164,0.163,0.33l-0.302,1.066
		c-0.053,0.163-0.163,0.218-0.326,0.163l-1.039-0.302c-0.738-0.217-1.777-0.354-2.733-0.354c-1.859,0-2.926,0.765-2.926,1.915
		c0,0.956,0.52,1.557,1.751,1.913l3.17,0.901c2.133,0.548,3.062,1.697,3.062,3.472c0,2.378-1.833,3.799-4.976,3.799
		c-1.612,0-3.008-0.217-4.128-0.628l-0.739-0.246c-0.163-0.054-0.218-0.165-0.163-0.327l0.383-1.094
		c0.055-0.137,0.165-0.192,0.301-0.137l0.711,0.246c0.93,0.329,2.188,0.547,3.636,0.547c2.022,0,3.198-0.819,3.198-2.16
		c0-1.012-0.574-1.611-1.831-1.995L511.82-31.203z"/>
	<path fill="#197EC1" d="M530.305-24.915c-0.956,0.3-1.913,0.409-2.952,0.409c-3.772,0-6.015-2.623-6.015-6.833
		c0-4.182,2.271-6.807,5.987-6.807c3.088,0,4.947,1.502,4.947,4.045c0,1.915-1.202,3.034-3.662,3.445l-5.331,0.875
		c0.354,2.296,1.832,3.635,4.073,3.635c0.931,0,1.775-0.11,2.542-0.356l0.82-0.244c0.163-0.027,0.273,0.026,0.328,0.189l0.327,1.094
		c0.028,0.164-0.025,0.273-0.191,0.3L530.305-24.915z M528.31-32.159c1.448-0.245,2.186-0.875,2.186-1.914
		c0-1.531-1.175-2.433-3.197-2.433c-2.542,0-4.072,1.722-4.156,5.22L528.31-32.159z"/>
	<path fill="#197EC1" d="M536.982-37.736c0.793-0.246,1.777-0.41,2.925-0.41c3.337,0,5.413,1.994,5.413,5.303v7.818
		c0,0.164-0.082,0.245-0.245,0.245h-0.849c-0.163,0-0.246-0.081-0.272-0.245l-0.082-1.231c-0.083-0.354-0.273-0.326-0.547-0.026
		c-0.93,1.175-2.323,1.775-4.348,1.775c-2.76,0-4.373-1.502-4.373-3.935c0-2.38,1.668-3.992,4.812-4.021h4.126v-0.354
		c0-2.322-1.312-3.663-3.661-3.663c-0.957,0-1.803,0.109-2.489,0.327l-0.956,0.275c-0.163,0.053-0.271,0-0.326-0.164l-0.302-1.067
		c-0.055-0.163,0-0.274,0.164-0.329L536.982-37.736z M539.416-30.928c-2.077,0-3.033,0.957-3.033,2.378
		c0,1.529,0.983,2.433,2.732,2.433c2.816,0,4.427-1.613,4.427-4.457v-0.355H539.416z"/>
	<path fill="#197EC1" d="M555.964-36.752c0,0.165-0.084,0.246-0.249,0.246c-2.925,0.137-4.592,2.596-4.592,7.217v4.265
		c0,0.164-0.082,0.245-0.246,0.245h-1.285c-0.163,0-0.245-0.081-0.245-0.245v-12.604c0-0.162,0.082-0.245,0.245-0.245h0.848
		c0.165,0,0.247,0.083,0.273,0.245l0.192,2.051c0.054,0.22,0.218,0.273,0.355,0.056c1.038-1.64,2.378-2.543,4.454-2.625
		c0.165,0,0.249,0.081,0.249,0.244V-36.752z"/>
	<path fill="#197EC1" d="M567.258-24.942c-0.876,0.274-1.778,0.436-2.709,0.436c-3.989,0-6.176-2.623-6.176-6.833
		c0-4.182,2.158-6.807,6.204-6.807c0.847,0,1.641,0.137,2.542,0.41l0.849,0.246c0.162,0.029,0.218,0.137,0.162,0.3l-0.354,1.093
		c-0.054,0.137-0.163,0.193-0.3,0.164l-0.766-0.219c-0.793-0.273-1.504-0.354-2.105-0.354c-3.006,0-4.456,1.969-4.456,5.167
		c0,3.252,1.504,5.193,4.4,5.193c0.685,0,1.506-0.136,2.325-0.384l0.765-0.216c0.166-0.056,0.274,0,0.329,0.164l0.328,1.065
		c0.054,0.163,0,0.273-0.166,0.327L567.258-24.942z"/>
	<path fill="#197EC1" d="M573.687-38.828c0,1.119-0.081,1.941-0.245,2.788c-0.056,0.246,0.136,0.354,0.354,0.108
		c0.93-1.366,2.323-2.213,4.346-2.213c3.007,0,4.839,2.022,4.839,5.303v7.818c0,0.164-0.082,0.245-0.244,0.245h-1.288
		c-0.163,0-0.244-0.081-0.244-0.245v-7.681c0-2.379-1.204-3.801-3.225-3.801c-3.146,0-4.293,2.571-4.293,5.494v5.988
		c0,0.164-0.081,0.245-0.245,0.245h-1.286c-0.164,0-0.245-0.081-0.245-0.245v-18.835c0-0.165,0.081-0.245,0.245-0.245h1.286
		c0.164,0,0.245,0.08,0.245,0.245V-38.828z"/>
	<g>
		<path fill="#197EC1" d="M338.185-40.738c1.225-0.332,2.381-0.53,3.637-0.53c5.024,0,7.967,2.38,7.967,6.413v9.751
			c0,0.265-0.167,0.43-0.431,0.43h-2.479c-0.264,0-0.396-0.099-0.527-0.299l-0.3-0.595c-0.197-0.397-0.493-0.462-1.058,0
			c-0.856,0.762-2.179,1.256-3.568,1.256c-3.933,0-6.28-1.951-6.28-5.29c0-3.074,2.446-4.891,6.545-4.891h3.107v-0.066
			c-0.132-1.423-1.356-2.249-3.239-2.249c-0.66,0-1.422,0.133-2.148,0.332l-1.256,0.362c-0.264,0.069-0.43-0.031-0.529-0.295
			l-1.025-3.439c-0.099-0.297,0-0.463,0.299-0.529L338.185-40.738z M341.69-31.219c-0.959,0-1.652,0.528-1.652,1.255
			c0,0.926,0.693,1.456,1.884,1.456c1.72,0,2.678-0.826,2.876-2.645v-0.066H341.69z"/>
		<path fill="#197EC1" d="M366.425-34.36c-1.225,3.273-2.414,6.808-3.108,9.322c-0.064,0.232-0.232,0.364-0.462,0.364h-5.29
			c-0.229,0-0.396-0.131-0.463-0.364c-0.693-2.48-1.883-5.983-3.105-9.322l-2.281-6.048c-0.133-0.298,0-0.497,0.33-0.497h4.528
			c0.232,0,0.396,0.099,0.497,0.33l0.99,2.778c0.86,2.413,1.521,4.958,1.851,6.941c0.067,0.429,0.531,0.429,0.597,0
			c0.264-1.983,0.923-4.562,1.817-6.941l0.991-2.778c0.099-0.231,0.266-0.33,0.496-0.33h4.527c0.332,0,0.463,0.198,0.332,0.497
			L366.425-34.36z"/>
		<path fill="#197EC1" d="M377.903-25.104c0,0.265-0.166,0.43-0.431,0.43h-4.362c-0.264,0-0.43-0.166-0.43-0.43v-11.205h-1.719
			c-0.266,0-0.43-0.166-0.43-0.43v-3.736c0-0.263,0.164-0.43,0.43-0.43h6.511c0.265,0,0.431,0.167,0.431,0.43V-25.104z"/>
		<path fill="#197EC1" d="M383.792-40.738c1.224-0.332,2.38-0.53,3.637-0.53c5.024,0,7.967,2.38,7.967,6.413v9.751
			c0,0.265-0.166,0.43-0.432,0.43h-2.479c-0.264,0-0.396-0.099-0.528-0.299l-0.298-0.595c-0.2-0.397-0.495-0.462-1.059,0
			c-0.856,0.762-2.18,1.256-3.569,1.256c-3.934,0-6.28-1.951-6.28-5.29c0-3.074,2.446-4.891,6.546-4.891h3.105v-0.066
			c-0.132-1.423-1.354-2.249-3.237-2.249c-0.662,0-1.424,0.133-2.149,0.332l-1.257,0.362c-0.265,0.069-0.43-0.031-0.53-0.295
			l-1.022-3.439c-0.099-0.297,0-0.463,0.298-0.529L383.792-40.738z M387.297-31.219c-0.959,0-1.653,0.528-1.653,1.255
			c0,0.926,0.694,1.456,1.885,1.456c1.718,0,2.676-0.826,2.874-2.645v-0.066H387.297z"/>
		<path fill="#197EC1" d="M409.187-40.905c0.265,0,0.428,0.167,0.428,0.43v3.736c0,0.264-0.163,0.43-0.428,0.43h-3.736v6.017
			c0,0.858,0.331,1.353,0.859,1.353c0.298,0,0.564-0.032,0.827-0.132c0.264-0.099,0.464-0.065,0.595,0.199l1.553,3.174
			c0.1,0.233,0.066,0.464-0.133,0.595c-0.792,0.527-1.85,0.793-2.842,0.793c-3.833,0-6.082-2.213-6.082-5.981v-6.017h-1.719
			c-0.264,0-0.428-0.166-0.428-0.43v-3.736c0-0.263,0.164-0.43,0.428-0.43h1.719v-3.603c0-0.23,0.1-0.396,0.363-0.496l4.364-1.455
			c0.298-0.1,0.495,0.033,0.495,0.363v5.19H409.187z"/>
		<path fill="#197EC1" d="M419.144-25.104c0,0.265-0.166,0.43-0.431,0.43h-4.363c-0.264,0-0.429-0.166-0.429-0.43v-11.205h-1.718
			c-0.266,0-0.433-0.166-0.433-0.43v-3.736c0-0.263,0.167-0.43,0.433-0.43h6.51c0.265,0,0.431,0.167,0.431,0.43V-25.104z
			 M419.045-46.061c0,1.884-1.058,3.042-2.942,3.042c-1.852,0-2.941-1.159-2.941-3.042c0-1.918,1.09-3.008,2.941-3.008
			C417.987-49.069,419.045-47.979,419.045-46.061z"/>
		<path fill="#197EC1" d="M438.255-32.807c0,5.224-3.075,8.496-8.032,8.496c-4.992,0-8.064-3.271-8.064-8.496
			c0-5.155,3.072-8.461,8.064-8.461C435.179-41.268,438.255-37.962,438.255-32.807z M427.28-32.807c0,2.415,1.124,3.867,2.942,3.867
			c1.783,0,2.909-1.452,2.909-3.867c0-2.38-1.126-3.801-2.909-3.801C428.404-36.608,427.28-35.187,427.28-32.807z"/>
		<path fill="#197EC1" d="M444.972-39.913c0.332,0.496,0.531,0.463,1.025,0.034c1.322-1.125,2.843-1.389,3.835-1.389
			c3.902,0,6.279,2.248,6.279,6.115v10.049c0,0.265-0.164,0.43-0.429,0.43h-4.396c-0.264,0-0.432-0.166-0.432-0.43v-9.387
			c0-1.355-0.692-2.116-1.851-2.116c-1.584,0-2.478,1.157-2.478,3.373v8.13c0,0.265-0.165,0.43-0.43,0.43h-4.396
			c-0.267,0-0.431-0.166-0.431-0.43v-15.371c0-0.263,0.164-0.43,0.431-0.43h2.346c0.229,0,0.398,0.099,0.495,0.298L444.972-39.913z"
			/>
	</g>
	<g>
		<g>
			<defs>
				<path id="SVGID_1_" d="M328.398-23.26h0.422c-9.517,0-17.435-7.541-17.435-14.767l-0.013-18.947
					c-0.015,5.322,7.327,14.341,17.715,14.341v12.137l-0.07,7.236"/>
			</defs>
			<linearGradient id="SVGID_2_" gradientUnits="userSpaceOnUse" x1="311.3728" y1="-40.1169" x2="329.0876" y2="-40.1169">
				<stop  offset="0" style="stop-color:#ED1C24"/>
				<stop  offset="0.5136" style="stop-color:#F4795A"/>
				<stop  offset="1" style="stop-color:#FFFFFF"/>
			</linearGradient>
			<use xlink:href="#SVGID_1_"  overflow="visible" fill="url(#SVGID_2_)"/>
			<clipPath id="SVGID_3_">
				<use xlink:href="#SVGID_1_"  overflow="visible"/>
			</clipPath>
			<g clip-path="url(#SVGID_3_)">
				<defs>
					<rect id="SVGID_4_" x="311.331" y="-47.774" width="14.871" height="24.546"/>
				</defs>
				<clipPath id="SVGID_5_">
					<use xlink:href="#SVGID_4_"  overflow="visible"/>
				</clipPath>
			</g>
		</g>
		<g>
			<defs>
				<path id="SVGID_6_" d="M370.151-50.192c-5.743-5.531-14.497-12.749-26.522-16.211c-13.271-3.82-31.441-1.07-32.38,9.43
					c-0.021,6.959,0.147,19.167,0.147,19.167c0.027-8.752,12.577-15.754,30.925-16.67C351.729-54.946,364.115-52.891,370.151-50.192
					"/>
			</defs>
			<linearGradient id="SVGID_7_" gradientUnits="userSpaceOnUse" x1="311.2468" y1="-52.9241" x2="370.1511" y2="-52.9241">
				<stop  offset="0" style="stop-color:#FDDED0"/>
				<stop  offset="0.3911" style="stop-color:#F4795A"/>
				<stop  offset="1" style="stop-color:#ED1C24"/>
			</linearGradient>
			<use xlink:href="#SVGID_6_"  overflow="visible" fill="url(#SVGID_7_)"/>
			<clipPath id="SVGID_8_">
				<use xlink:href="#SVGID_6_"  overflow="visible"/>
			</clipPath>
		</g>
		<polygon fill="#83C1E9" points="368.206,-46.253 368.181,-46.203 381.013,-44.718 372.211,-54.102 372.625,-49.006 
			368.206,-46.253 		"/>
	</g>
</g>
</svg>
